<?xml version="1.0" encoding="UTF-8" standalone="no"?>
<svg
   xmlns:dc="http://purl.org/dc/elements/1.1/"
   xmlns:cc="http://creativecommons.org/ns#"
   xmlns:rdf="http://www.w3.org/1999/02/22-rdf-syntax-ns#"
   xmlns:svg="http://www.w3.org/2000/svg"
   xmlns="http://www.w3.org/2000/svg"
   xmlns:xlink="http://www.w3.org/1999/xlink"
   xmlns:sodipodi="http://sodipodi.sourceforge.net/DTD/sodipodi-0.dtd"
   xmlns:inkscape="http://www.inkscape.org/namespaces/inkscape"
   width="210mm"
   height="297mm"
   viewBox="0 0 210 297"
   version="1.1"
   id="svg8"
   inkscape:version="1.0.1 (3bc2e813f5, 2020-09-07)"
   sodipodi:docname="icon.svg"
   inkscape:export-filename="C:\Users\gyuha\Desktop\icon.png"
   inkscape:export-xdpi="20.719999"
   inkscape:export-ydpi="20.719999">
  <defs
     id="defs2">
    <linearGradient
       inkscape:collect="always"
       id="linearGradient1405">
      <stop
         style="stop-color:#ff00bf;stop-opacity:1"
         offset="0"
         id="stop1401" />
      <stop
         style="stop-color:#fff500;stop-opacity:1"
         offset="1"
         id="stop1403" />
    </linearGradient>
    <linearGradient
       inkscape:collect="always"
       id="linearGradient1378">
      <stop
         style="stop-color:#000b15;stop-opacity:1"
         offset="0"
         id="stop1374" />
      <stop
         style="stop-color:#2a94cd;stop-opacity:1"
         offset="1"
         id="stop1376" />
    </linearGradient>
    <rect
       x="92.982143"
       y="99.21875"
       width="101.6756"
       height="32.505952"
       id="rect1285" />
    <rect
       x="56.507441"
       y="140.41815"
       width="44.412202"
       height="32.127976"
       id="rect1279" />
    <linearGradient
       inkscape:collect="always"
       xlink:href="#linearGradient1378"
       id="linearGradient1380"
       x1="140.93668"
       y1="214.24045"
       x2="112.05192"
       y2="83.406586"
       gradientUnits="userSpaceOnUse" />
    <linearGradient
       inkscape:collect="always"
       xlink:href="#linearGradient1405"
       id="linearGradient1407"
       x1="110.52673"
       y1="43.17297"
       x2="128.85042"
       y2="240.53513"
       gradientUnits="userSpaceOnUse" />
  </defs>
  <sodipodi:namedview
     id="base"
     pagecolor="#ffffff"
     bordercolor="#666666"
     borderopacity="1.0"
     inkscape:pageopacity="0.0"
     inkscape:pageshadow="2"
     inkscape:zoom="0.98994949"
     inkscape:cx="465.72639"
     inkscape:cy="568.79998"
     inkscape:document-units="mm"
     inkscape:current-layer="layer6"
     inkscape:document-rotation="0"
     showgrid="false"
     inkscape:window-width="3840"
     inkscape:window-height="2081"
     inkscape:window-x="-9"
     inkscape:window-y="506"
     inkscape:window-maximized="1" />
  <metadata
     id="metadata5">
    <rdf:RDF>
      <cc:Work
         rdf:about="">
        <dc:format>image/svg+xml</dc:format>
        <dc:type
           rdf:resource="http://purl.org/dc/dcmitype/StillImage" />
        <dc:title></dc:title>
      </cc:Work>
    </rdf:RDF>
  </metadata>
  <g
     inkscape:groupmode="layer"
     id="layer6"
     inkscape:label="ë°°ê²½">
    <rect
       style="display:inline;fill:url(#linearGradient1407);fill-opacity:1;fill-rule:evenodd;stroke-width:0.28276312;stroke-miterlimit:4;stroke-dasharray:none"
       id="rect83-2"
       width="132.73787"
       height="134.81915"
       x="59.14193"
       y="84.129478"
       rx="6.3562074"
       ry="6.4558711"
       transform="matrix(1,0,-0.19626057,0.98055179,0,0)" />
  </g>
  <g
     inkscape:groupmode="layer"
     id="layer3"
     inkscape:label="ì°½"
     style="display:inline"
     sodipodi:insensitive="true">
    <rect
       style="display:inline;fill:url(#linearGradient1380);fill-opacity:1;fill-rule:evenodd;stroke-width:0.267194"
       id="rect83"
       width="125.29911"
       height="127.78429"
       x="62.783482"
       y="87.421822"
       rx="6"
       ry="6.1190038"
       transform="matrix(1,0,-0.19626057,0.98055179,0,0)" />
  </g>
  <g
     inkscape:groupmode="layer"
     id="layer4"
     inkscape:label="í…ìŠ¤íŠ¸"
     style="display:none"
     sodipodi:insensitive="true">
    <text
       xml:space="preserve"
       id="text1277"
       style="font-style:normal;font-weight:normal;font-size:10.5833px;line-height:1.25;font-family:sans-serif;white-space:pre;shape-inside:url(#rect1279);display:inline;fill:#ffffff;fill-opacity:1;stroke:none;"
       transform="matrix(1.7707096,0,0,2.7569137,-40.362901,-290.37387)"><tspan
         x="56.507812"
         y="149.95092"><tspan
           style="fill:#ffffff;fill-opacity:1">ðŸ“¢</tspan></tspan></text>
    <path
       style="fill:#ff0000;fill-opacity:1;stroke-width:0.200982"
       d="m 64.120511,116.98687 c -0.654218,-0.26718 -0.843622,-1.22851 -0.843622,-4.28183 0,-2.74872 0.03714,-3.068 0.413452,-3.55359 0.403566,-0.52076 0.467969,-0.53353 2.693082,-0.53353 h 2.279626 v 4.25224 4.25223 l -2.14449,-0.0159 c -1.179468,-0.008 -2.258591,-0.0626 -2.398048,-0.11955 z"
       id="path1299" />
    <path
       style="fill:#ff0000;fill-opacity:1;stroke-width:0.209253"
       d="m 66.78441,121.7153 c -0.12312,-0.21542 -0.223855,-1.17217 -0.223855,-2.12612 v -1.73445 h 1.405599 1.4056 v 1.88313 c 0,1.19467 -0.09487,1.97197 -0.259495,2.12611 -0.142722,0.13364 -0.674508,0.24299 -1.181746,0.24299 -0.690482,0 -0.978504,-0.0985 -1.146103,-0.39166 z"
       id="path1301" />
    <path
       style="fill:#e8e8e8;fill-opacity:1;stroke-width:0.199636"
       d="m 74.320028,119.66388 -5.071098,-2.68622 -0.05111,-4.2685 -0.05111,-4.26851 1.045439,-0.56303 c 5.16824,-2.78339 9.526992,-4.94816 9.963054,-4.94816 h 0.528554 v 9.71974 9.71975 l -0.646318,-0.01 c -0.432519,-0.006 -2.323798,-0.89801 -5.717416,-2.69566 z"
       id="path1311" />
    <path
       style="fill:#e8e8e8;fill-opacity:1;stroke-width:0.0371953"
       d="m 81.097185,112.69657 -10e-4,-2.27216 0.09356,0.0579 c 0.174998,0.10806 0.520279,0.49339 0.689012,0.76869 0.355058,0.57922 0.464214,1.05883 0.387903,1.70436 -0.09474,0.80138 -0.435808,1.43076 -1.032829,1.90579 l -0.135229,0.10761 z"
       id="path1313" />
    <text
       xml:space="preserve"
       style="font-style:normal;font-weight:normal;font-size:28.7138px;line-height:1.25;font-family:sans-serif;fill:#000000;fill-opacity:1;stroke:none;stroke-width:0.717846"
       x="86.213814"
       y="120.81255"
       id="text1338"><tspan
         sodipodi:role="line"
         id="tspan1336"
         x="86.213814"
         y="120.81255"
         style="font-style:normal;font-variant:normal;font-weight:normal;font-stretch:normal;font-family:Consolas;-inkscape-font-specification:Consolas;fill:#ffffff;fill-opacity:1;stroke-width:0.717846">[ind</tspan></text>
  </g>
  <g
     inkscape:groupmode="layer"
     id="layer5"
     inkscape:label="cursor"
     style="display:inline"
     sodipodi:insensitive="true">
    <g
       id="g1275"
       transform="matrix(1.0557468,0,-0.15228209,0.76082771,26.664439,21.281226)"
       style="display:inline">
      <rect
         style="fill:#ffffff;fill-opacity:1;stroke-width:0.145854"
         id="rect1226"
         width="6.9925599"
         height="33.294643"
         x="-27.753839"
         y="125.75988"
         rx="0.98666668"
         ry="1.2319806"
         transform="matrix(1,0,0.53356576,0.84575858,0,0)" />
      <rect
         style="display:inline;fill:#ffffff;fill-opacity:1;stroke-width:0.145854"
         id="rect1226-4"
         width="6.9925599"
         height="33.294643"
         x="-148.30315"
         y="157.80318"
         rx="0.98666668"
         ry="1.2319806"
         transform="matrix(-1,0,-0.53356576,0.84575858,0,0)" />
    </g>
    <rect
       style="fill:#ffffff;fill-opacity:1;stroke-width:0.294155"
       id="rect1346"
       width="29.934189"
       height="5.3151255"
       x="102.57209"
       y="142.96324"
       rx="1.0566038"
       ry="1.1698096"
       transform="matrix(1,0,-0.19626057,0.98055178,0,0)" />
  </g>
</svg>
